<svg xmlns="http://www.w3.org/2000/svg" viewBox="0 0 128 128" role="img" aria-labelledby="title desc">
  <title id="title">Cloudy weather</title>
  <desc id="desc">A soft cartoon cloud with a calm face.</desc>
  <rect width="128" height="128" rx="28" fill="#edf1f5"/>
  <path d="M34 81c-13 0-23-10-23-22 0-12 9-21 21-22 6-13 18-21 33-21 18 0 33 13 36 30 10 3 17 12 17 23 0 13-11 24-25 24H34z" fill="#ffffff" stroke="#a6b0bb" stroke-linejoin="round" stroke-width="6"/>
  <path d="M39 57c7-12 24-18 39-11" fill="none" stroke="#d6dde4" stroke-linecap="round" stroke-width="5"/>
  <circle cx="53" cy="70" r="4" fill="#3e4852"/>
  <circle cx="76" cy="70" r="4" fill="#3e4852"/>
  <path d="M56 81c5 4 12 4 17 0" fill="none" stroke="#3e4852" stroke-linecap="round" stroke-width="4"/>
</svg>
